<?xml version="1.0" encoding="UTF-8"?>
<svg id="Camada_2" data-name="Camada 2" xmlns="http://www.w3.org/2000/svg" viewBox="0 0 529.21 491.28">
  <defs>
    <style>
      .cls-1 {
        fill: #080808;
      }

      .cls-2 {
        fill: none;
        stroke-miterlimit: 10;
      }

      .cls-2, .cls-3 {
        stroke: #080808;
        stroke-linecap: round;
        stroke-width: 1.04px;
      }

      .cls-4, .cls-5, .cls-3 {
        fill: #fff;
      }

      .cls-5 {
        fill-rule: evenodd;
      }

      .cls-6 {
        fill: #3a57f0;
      }

      .cls-3 {
        stroke-linejoin: round;
      }
    </style>
  </defs>
  <g id="Camada_1-2" data-name="Camada 1">
    <rect class="cls-4" x="0" y="0" width="529.21" height="491.28"/>
    <g>
      <g>
        <path class="cls-2" d="M147.98,315.01c-3.2,4.68-1.49,11.14,1.36,16.04,2.85,4.9,6.78,9.35,8.09,14.87,1.14,4.81.13,9.89-1.52,14.55-1.65,4.66-3.92,9.09-5.4,13.81-3.55,11.24-2.46,23.35-1.34,35.08"/>
        <path class="cls-6" d="M113.13,277.38c1.33,20.62,16.3,36.45,33.44,35.35,17.14-1.1,29.96-18.72,28.63-39.34-1.33-20.62-16.3-36.45-33.44-35.35-17.14,1.1-29.96,18.72-28.63,39.34"/>
        <polygon class="cls-6" points="141.73 317.37 151.95 316.72 146.4 310.14 141.73 317.37"/>
        <path class="cls-2" d="M123.65,333.3c1.67,1.93,2.62,4.46,2.67,7,0,.38-.26.71-.64.77l-2.61.44c-.45.07-.88-.23-.93-.68-.15-1.3-.74-2.55-1.65-3.48-.92-.94-2.17-1.65-3.43-2.03-.39-.12-.76-.22-.72-.67.07-.66.14-1.32.16-1.99.01-.36.05-.73.1-1.09.11-.84.23-1.72,1.23-1.76,2-.09,4.6,2.1,5.81,3.5Z"/>
        <path class="cls-2" d="M190.17,75.7c2.09-1.46,4.7-2.16,7.24-1.95.38.03.68.33.7.71l.17,2.64c.03.45-.32.85-.77.86-1.31.02-2.61.47-3.63,1.29-1.03.82-1.86,1.99-2.37,3.2-.16.38-.3.74-.73.64-.65-.14-1.3-.27-1.97-.36-.36-.05-.72-.13-1.07-.21-.82-.2-1.69-.41-1.63-1.4.12-2,2.56-4.36,4.07-5.42Z"/>
        <path class="cls-2" d="M199.83,129.13c1.67,1.93,2.62,4.46,2.67,7,0,.38-.26.71-.64.77l-2.61.44c-.45.07-.88-.23-.93-.68-.15-1.3-.74-2.55-1.65-3.48-.92-.94-2.17-1.65-3.43-2.03-.39-.12-.76-.22-.72-.67.07-.66.14-1.32.16-1.99.01-.36.05-.73.1-1.09.11-.84.23-1.72,1.23-1.76,2-.09,4.6,2.1,5.81,3.5Z"/>
        <path class="cls-2" d="M188.04,301.11c2.5.51,4.8,1.92,6.39,3.91.24.3.23.72-.03,1l-1.8,1.94c-.31.33-.84.35-1.15.03-.91-.94-2.14-1.57-3.44-1.75-1.31-.18-2.73.02-3.95.48-.38.14-.74.29-.97-.09-.35-.57-.7-1.13-1.09-1.68-.21-.3-.4-.61-.58-.92-.42-.73-.87-1.51-.1-2.15,1.53-1.29,4.93-1.15,6.73-.78Z"/>
        <path class="cls-2" d="M229.57,89.31c2.5.51,4.8,1.92,6.39,3.91.24.3.23.72-.03,1l-1.8,1.94c-.31.33-.84.35-1.15.03-.91-.94-2.14-1.57-3.44-1.75-1.31-.18-2.73.02-3.95.48-.38.14-.74.29-.97-.09-.35-.57-.7-1.13-1.09-1.68-.21-.3-.4-.61-.58-.92-.42-.73-.87-1.51-.1-2.15,1.53-1.29,4.93-1.15,6.73-.78Z"/>
        <path class="cls-2" d="M193.52,283.47c-.48-1.63-.96-3.26-1.44-4.89"/>
        <path class="cls-2" d="M160.51,100.46c-.48-1.63-.96-3.26-1.44-4.89"/>
        <path class="cls-2" d="M130.65,226.72c-.65-.71-1.3-1.41-1.95-2.12"/>
        <path class="cls-2" d="M218.6,122.21c-.65-.71-1.3-1.41-1.95-2.12"/>
        <line class="cls-2" x1="100.17" y1="290.21" x2="93.66" y2="289.01"/>
        <line class="cls-2" x1="160.88" y1="129.68" x2="154.37" y2="128.48"/>
      </g>
      <g>
        <path class="cls-2" d="M321.52,137.43c2.28,5.74.99,12.3-1.3,18.03-2.29,5.74-5.54,11.09-7.33,17-3.82,12.63-.55,26.21,2.98,38.93,3.52,12.72,7.33,26.02,4.51,38.92"/>
        <path class="cls-6" d="M352.91,96.8c0,20.67-13.92,37.42-31.1,37.42s-31.1-16.75-31.1-37.42,13.92-37.42,31.1-37.42,31.1,16.75,31.1,37.42"/>
        <polygon class="cls-6" points="326.93 138.55 316.69 138.55 321.81 131.63 326.93 138.55"/>
        <path class="cls-2" d="M379.57,117.17c2.15,1.38,4.78,1.97,7.31,1.65.38-.05.66-.36.67-.74l.06-2.65c.01-.45-.35-.84-.81-.83-1.31.04-2.63-.37-3.68-1.14-1.06-.78-1.94-1.92-2.5-3.1-.17-.37-.33-.72-.76-.61-.64.16-1.29.32-1.95.44-.36.07-.71.16-1.06.25-.82.23-1.67.47-1.57,1.47.2,2,2.73,4.26,4.29,5.25Z"/>
        <path class="cls-2" d="M282.61,161.37c.11-2.55-.7-5.12-2.25-7.15-.23-.3-.64-.39-.98-.21l-2.32,1.28c-.4.22-.55.73-.31,1.11.69,1.11,1,2.46.86,3.76-.14,1.31-.68,2.64-1.43,3.72-.23.34-.46.65-.15.97.47.48.93.95,1.36,1.46.24.28.49.54.75.79.61.59,1.25,1.21,2.06.62,1.62-1.18,2.3-4.5,2.38-6.35Z"/>
        <path class="cls-2" d="M272.15,211.85c1.61-1.35,3.23-2.7,4.84-4.05"/>
        <path class="cls-2" d="M297.87,218.13c.09-.57.19-1.14.28-1.71"/>
        <line class="cls-2" x1="297.45" y1="146.36" x2="297.45" y2="148.06"/>
        <line class="cls-2" x1="354.98" y1="136.39" x2="359.82" y2="136.39"/>
        <path class="cls-2" d="M363.24,82.55c.09-2.37.19-4.75.28-7.12"/>
        <path class="cls-2" d="M303.5,57.03c-1.19-2.3-2.38-4.6-3.57-6.9"/>
        <path class="cls-2" d="M283.49,78.57c-.85.28-1.71.57-2.56.85"/>
        <line class="cls-2" x1="264.12" y1="109.04" x2="268.38" y2="109.04"/>
        <g>
          <path class="cls-2" d="M375.73,221.78c2.29,5.18-.56,11.23-4.25,15.53-3.69,4.3-8.36,7.96-10.65,13.15-2,4.52-1.92,9.7-1.15,14.58.77,4.88,2.2,9.65,2.8,14.56,1.45,11.7-1.82,23.4-5.06,34.74"/>
          <path class="cls-6" d="M416.83,191.1c-5.05,20.04-22.65,32.88-39.3,28.68-16.65-4.2-26.06-23.85-21.01-43.89,5.05-20.04,22.65-32.88,39.3-28.68,16.65,4.2,26.06,23.85,21.01,43.89"/>
          <polygon class="cls-6" points="381.44 225.24 371.51 222.73 378.17 217.27 381.44 225.24"/>
          <path class="cls-2" d="M396.33,244.18c-1.99,1.6-3.39,3.91-3.9,6.4-.08.37.13.74.48.87l2.49.9c.43.16.91-.07,1.04-.5.38-1.25,1.19-2.37,2.26-3.13,1.08-.76,2.43-1.23,3.74-1.38.41-.05.79-.08.82-.52.05-.66.1-1.33.2-1.99.05-.36.08-.72.1-1.09.04-.85.08-1.74-.89-1.96-1.95-.45-4.91,1.23-6.34,2.39Z"/>
          <path class="cls-2" d="M338.86,200.83c-2.55.05-5.07,1.02-7,2.68-.29.25-.35.67-.15.99l1.42,2.24c.24.38.76.5,1.13.24,1.07-.76,2.39-1.15,3.7-1.09,1.32.06,2.68.52,3.8,1.2.35.21.67.42.97.09.45-.49.89-.99,1.38-1.45.26-.25.51-.52.74-.8.55-.64,1.13-1.32.49-2.1-1.27-1.55-4.64-2.02-6.48-1.99Z"/>
          <path class="cls-2" d="M336.67,182.49c.77-1.51,1.54-3.03,2.31-4.54"/>
          <path class="cls-2" d="M408.81,138.1c.77-.58,1.54-1.15,2.3-1.73"/>
          <line class="cls-2" x1="427.24" y1="206.08" x2="433.87" y2="206.08"/>
        </g>
      </g>
      <circle class="cls-1" cx="248.88" cy="177.65" r="40.18"/>
      <g>
        <g>
          <path class="cls-1" d="M237.49,224.53c-22.17-9.97-39.02-49.12-51.93-68.56-1.42-2.15-2.82-4.38-4.88-6.06-2.07-1.68-5.02-2.69-7.32-1.82-2.51.95-3.4,3.68-3.82,6.19-1.46,8.67,8.34,53.83,14.67,70.56,7.19,18.98,23.43,50.3,28.8,53.45,3.53,2.07,11.89-41.71,24.47-53.75Z"/>
          <path class="cls-4" d="M226.52,220.88c-16.62-9.8-26.65-33.56-36.39-48.23-1.07-1.62-2.13-3.3-3.69-4.57-1.56-1.27-3.79-2.03-5.53-1.38-1.89.71-2.56,2.78-2.88,4.67-1.1,6.55,6.29,40.63,11.08,53.26,5.42,14.32,17.69,33.23,21.74,35.61,2.66,1.56,15.67-39.36,15.67-39.36Z"/>
        </g>
        <path class="cls-6" d="M300.72,418.11c.8,2.53-.37,5.27-2.76,6.42-5.3,2.57-14.57,7.24-21.12,11.53-9.68,6.34-13.57,10.01-11.08,13.8,1.86,2.83,15.43-.75,15.43-.75,0,0,.67,5.94,4.65,6.08,6.54.23,20.48-7.32,20.48-7.32,0,0,11.98,1.03,15.79.28,11.16-2.21,5.01-10.85-.81-18.92-9.04-12.54-10.05-20.25-10.05-20.25l-13.63-.64,3.1,9.78Z"/>
        <path class="cls-1" d="M282.73,392.51c8.32,5.74,42.67,15.48,49.13,10.58,4.07-3.09,1.42-8.36-1.05-11.64-13.47-17.77-30.64-30.82-40.94-50.95-1.03-1.98-3.89-.02-2.89,1.96,1.47,2.89,3.11,5.67,4.85,8.36-.33.3-.54.73-.51,1.28.51,9.97-13.88,17.86-16.23,27.56-1.51,6.11,2.99,9.67,7.64,12.83Z"/>
        <path class="cls-6" d="M197.75,408.97s6.73,15,2.01,19.56c-4.73,4.56-25.29,8.2-33.74,11.39-7.06,2.66-2.31,6.79-.37,6.69s12.09-.07,12.09-.07c0,0-4.07.52-2.78,2.69,1.29,2.18,42.69-1.65,49.41-1.92,6.72-.27,6.51-5.92,3.99-12.72-2.04-5.52-17.26-13.54-17.49-24.75l-13.12-.85Z"/>
        <path class="cls-1" d="M320.7,310.84c-11.2-86.24-39.99-81.54-45.63-129.97l-42.81,8.23s-17.43,23.73-23.44,76.26c-3.45,30.13,6.98,67.64-6.5,96.64-9.39,20.21-8.97,36.47-8.96,40.19,0,5.55,1.39,13.01,11.53,13.29,11.34.31,33.59-23.91,57.07-26.69h0c1.31,5.55,19.77,28.68,25.84,34.26,6.06,5.58,8.68,8.17,17.21,1.87,7.02-5.19,25.1-41.59,15.68-114.08Z"/>
        <path class="cls-4" d="M280.2,364.72c-7.23,18.52-21.56,24.05-30.95,23.29-9.39-.76-27.06-6.6-32.7-33.29-10.63-50.3-2.34-99.29,1.93-120.34,1.53-7.56,10.41-28.09,18-26.77l20.46.56c21.08,26.66,35.03,126.39,23.25,156.55Z"/>
        <path class="cls-1" d="M272.26,224.53c22.17-9.97,39.02-49.12,51.93-68.56,1.42-2.15,2.82-4.38,4.88-6.06,2.07-1.68,5.02-2.69,7.32-1.82,2.51.95,3.4,3.68,3.82,6.19,1.46,8.67-8.34,53.83-14.67,70.56-7.19,18.98-23.43,50.3-28.8,53.45-3.53,2.07-11.89-41.71-24.47-53.75Z"/>
        <path class="cls-4" d="M282.7,221.92c16.62-9.8,26.65-33.04,36.39-47.71,1.07-1.62,2.13-3.3,3.69-4.57,1.56-1.27,3.79-2.03,5.53-1.38,1.89.71,2.56,2.78,2.88,4.67,1.1,6.55-6.29,40.63-11.08,53.26-5.42,14.32-17.69,33.23-21.74,35.61-2.66,1.56-15.67-39.88-15.67-39.88Z"/>
      </g>
      <path class="cls-4" d="M225.6,202.94c-4.35-5.87-6.97-13.47-6.97-21.79,0-.09,0-.17,0-.26.06-9.18,3.32-17.49,8.56-23.51,4.06-4.67,11.33-5.37,15.97-1.23.15.13.3.27.44.41,1.49,1.45,2.61,3.19,3.17,5.14.78-2.74,2.67-5.07,5.12-6.73.15-.11.31-.21.46-.3,4.99-3.13,11.64-2.14,15.58,2.19,5.55,6.11,9.02,14.71,9.03,24.25,0,.01,0,.03,0,.04,0,8.73-2.64,16.89-7.63,22.65-2.99,3.44-9.76,7.62-21.42,8.05-15.7.58-21.7-8.08-22.31-8.91Z"/>
      <path class="cls-5" d="M231.3,176.51s14.94.93,17.63,3.6c2.69,2.68,3.18,8.63-.51,10.69-3.69,2.05-15.02,2.56-15.02,2.56l9.74-8.98-11.85-7.87Z"/>
      <g>
        <g>
          <circle class="cls-3" cx="230.45" cy="172.16" r="15.95"/>
          <g>
            <circle class="cls-6" cx="230.28" cy="172.04" r="11.89"/>
            <circle class="cls-4" cx="226.8" cy="166.58" r="2.77"/>
          </g>
        </g>
        <g>
          <circle class="cls-3" cx="263" cy="172.33" r="15.95"/>
          <g>
            <circle class="cls-6" cx="262.83" cy="172.21" r="11.89"/>
            <circle class="cls-4" cx="259.35" cy="166.75" r="2.77"/>
          </g>
        </g>
        <g>
          <path class="cls-1" d="M237.47,186.36s-1.9,5.69-5.96,9.25c0,0,4.15,2.33,6.82,1.13,2.67-1.2,7-4.36,8.1-8.14l-8.96-2.24Z"/>
          <path class="cls-6" d="M245.83,189c-11.94.01-19.1-4.84-18.19-4.85l21.37-.16c.91,0,1.69.79,1.52,1.68-1.43,7.72-9.26,15.82-19.02,9.93,3.34.45,10.93-.64,14.32-6.61Z"/>
        </g>
      </g>
    </g>
  </g>
</svg>