<?xml version="1.0" encoding="UTF-8"?>
<svg id="Camada_2" data-name="Camada 2" xmlns="http://www.w3.org/2000/svg" viewBox="0 0 435.6 75.82">
  <defs>
    <style>
      .cls-1 {
        fill: #2167ae;
        fill-rule: evenodd;
      }

      .cls-2 {
        fill: #ec0000;
      }

      .cls-3 {
        fill: #080808;
      }
    </style>
  </defs>
  <g id="Camada_1-2" data-name="Camada 1">
    <g>
      <g>
        <path class="cls-2" d="M250.74,17.09c-.06-1.34-.43-2.68-1.13-3.88l-6.14-10.64c-.47-.81-.79-1.68-.97-2.57l-.26.44c-1.52,2.63-1.52,5.88,0,8.51l4.91,8.51c1.52,2.63,1.52,5.88,0,8.51l-.26.44c-.18-.89-.5-1.76-.97-2.57l-4.5-7.79-2.87-4.97c-.47-.81-.79-1.68-.97-2.57l-.26.44c-1.51,2.62-1.52,5.85-.01,8.48h0s4.93,8.53,4.93,8.53c1.52,2.63,1.52,5.88,0,8.51l-.26.44c-.18-.89-.5-1.76-.97-2.57l-6.14-10.64c-.82-1.43-1.2-3.03-1.13-4.62-6.57,1.72-11.11,5.36-11.11,9.59,0,5.87,8.78,10.63,19.61,10.63s19.61-4.76,19.61-10.63c0-4.22-4.54-7.87-11.11-9.59ZM269.26,35.25c.07-1.51.29-2.54.7-3.72,2.06.96,4.71,1.44,6.74,1.44,3.43,0,5.34-1.1,5.34-3.28s-1.4-3.13-4.86-4.64l-1.88-.81c-3.46-1.51-5.82-3.46-5.82-7.37,0-4.2,2.91-6.89,8.88-6.89,2.39,0,4.64.33,6.74,1.07-.11,1.47-.37,2.62-.74,3.68-1.99-.74-4.35-1.07-6.04-1.07-3.2,0-4.68,1.25-4.68,3.2s1.44,3.02,4.01,4.13l1.99.85c4.68,1.99,6.63,4.09,6.63,7.66,0,4.24-3.2,7.15-9.47,7.15-3.02,0-5.49-.44-7.55-1.4ZM306.05,17.64v18.42h-3.72l-.22-2.21c-1.03,1.62-2.62,2.65-5.19,2.65-4.86,0-8.1-3.54-8.1-9.72s3.46-10.17,10.28-10.17c2.65,0,4.83.29,6.96,1.03ZM302,31.86v-11.57c-.85-.15-1.77-.22-2.91-.22-4.2,0-6.15,2.58-6.15,6.7,0,3.76,1.51,6.41,5.12,6.41,1.58,0,2.87-.52,3.94-1.33ZM326.79,23.68v12.38h-4.05v-11.68c0-2.91-.96-4.31-5.01-4.31-.96,0-2.1.11-3.2.29v15.69h-4.05v-18.42c2.58-.63,5.41-1.03,7.37-1.03,6.78,0,8.95,2.61,8.95,7.07ZM338.03,33.04c1.18,0,2.28-.22,3.17-.55-.11,1.1-.26,2.36-.48,3.43-1.1.44-2.28.59-3.43.59-3.94,0-6.45-1.8-6.45-6.3V10.87c1.25-.41,2.8-.59,4.05-.59v6.96h6.41c-.07,1.25-.18,2.39-.37,3.46h-6.04v9.02c0,2.39,1.18,3.31,3.13,3.31ZM359.76,17.64v18.42h-3.72l-.22-2.21c-1.03,1.62-2.62,2.65-5.19,2.65-4.86,0-8.1-3.54-8.1-9.72s3.46-10.17,10.28-10.17c2.65,0,4.83.29,6.96,1.03ZM355.71,31.86v-11.57c-.85-.15-1.77-.22-2.91-.22-4.2,0-6.15,2.58-6.15,6.7,0,3.76,1.51,6.41,5.12,6.41,1.58,0,2.87-.52,3.94-1.33ZM380.5,23.68v12.38h-4.05v-11.68c0-2.91-.96-4.31-5.01-4.31-.96,0-2.1.11-3.2.29v15.69h-4.05v-18.42c2.58-.63,5.41-1.03,7.37-1.03,6.78,0,8.95,2.61,8.95,7.07ZM401.05,10.28v25.78h-3.72l-.22-2.36c-1.03,1.73-2.62,2.8-5.27,2.8-4.86,0-8.1-3.54-8.1-9.72s3.46-10.17,10.28-10.17c1.07,0,2.06.11,3.02.29v-6.08c1.25-.44,2.69-.55,4.01-.55ZM397.04,31.79v-11.34c-1.07-.22-2.17-.37-3.24-.37-4.01,0-5.93,2.5-5.93,6.7,0,3.76,1.51,6.41,5.12,6.41,1.62,0,2.95-.55,4.05-1.4ZM421.42,28.18h-12.93c.52,3.28,2.43,4.86,6.04,4.86,2.21,0,4.46-.48,6.48-1.4-.15,1.07-.37,2.47-.63,3.68-1.84.85-3.79,1.18-5.97,1.18-6.78,0-10.06-3.76-10.06-10.06,0-5.49,2.54-9.83,8.99-9.83,5.78,0,8.29,3.79,8.29,8.43,0,1.14-.07,2.06-.22,3.13ZM408.42,24.79h9.13c0-3.02-1.62-4.79-4.42-4.79s-4.38,1.66-4.71,4.79ZM435.6,16.76c0,1.22-.15,2.69-.37,3.46-.96-.11-1.92-.15-3.06-.15-.99,0-1.99.07-2.98.22v15.76h-4.05v-18.42c1.73-.59,4.64-1.03,6.92-1.03,1.25,0,2.65.04,3.54.15Z"/>
        <g id="Page-1">
          <g id="logo">
            <path id="Fill-1" class="cls-1" d="M24.54,0C10.99,0,0,11,0,24.55c0,5.6,1.87,10.76,5.03,14.89L25.43,12.63h-4.38c-2.33,0-4.51.16-6.08.47-.96.18-1.81.53-2.5,1.02-.82.58-1.83,1.78-2.5,2.97-.07.14-.19.35-.33.63l-1.2-.27,2-7.7h25.56l-20.31,27.15c1.32-.12,1.85-.15,2.92-.15.82,0,2.07.05,3.75.15l3.6.21c1.3.08,2.4.12,3.23.12,1.86,0,3.08-.14,4.28-.51.93-.29,1.82-.71,2.63-1.27,1.43-.98,2.81-2.57,3.64-4.15.08-.15.22-.4.36-.73l1.08.28c-.35,1.34-.54,1.85-1.08,3.06-1.09,2.44-2.32,4.07-4.01,5.32-1.74,1.29-3.67,1.92-5.94,1.95h-.35c-1.69,0-3-.13-7.03-.75-4.11-.63-6.2-.85-8.27-.85-1.38,0-2.67.1-4,.32-1.76.29-2.45.49-4.06,1.22,4.49,4.89,10.93,7.96,18.09,7.96,13.56,0,24.55-10.99,24.55-24.55S38.1,0,24.54,0"/>
            <path id="Fill-2" class="cls-1" d="M108.68,13.93c.15.25.27.51.35.78.16.56.2,1.11.2,2.41v8.75c0,1.88-.05,2.99-.19,3.9-.09.61-.3,1.19-.6,1.69-.57.94-1.62,1.66-2.87,1.97-.5.12-1.06.18-1.65.18-1.99,0-3.72-.73-4.55-1.94-.64-.94-.83-1.83-.86-4.21l-.02-1.89v-6.94c0-1.34.01-1.98.06-2.67.03-.41.09-.76.17-1.05.16-.53.56-1.24.94-1.67.04-.05.11-.11.19-.2h-7.58c.47.37.62.55.84.93.15.25.26.51.33.8.09.35.15.71.16,1.06,0,.22.01.7.02,1.43v7.93c0,2.44.02,3.07.1,4.05.14,1.67.66,3.02,1.63,4.24,1.77,2.19,4.6,3.35,8.22,3.35,1.73,0,3.4-.26,4.68-.73,1.34-.5,2.58-1.31,3.46-2.29,1.09-1.19,1.71-2.66,1.89-4.47.11-1.05.16-2.3.16-4.12v-7.92s-.01-.27-.01-.27c0-.99.05-1.57.18-2.1.09-.34.22-.65.4-.94.25-.4.42-.58.91-.95h-7.43c.45.35.61.51.85.88h0ZM129.63,23.18c-.83.48-1.68.75-2.94.93-.48.07-.87.11-1.21.11-.12,0-.2,0-.38-.02v-8.52c.29-.01.42-.01.61-.01,1.15,0,2.26.13,3.14.38.59.17,1.12.45,1.57.83.8.66,1.21,1.63,1.21,2.83,0,1.04-.31,1.93-.91,2.59-.29.32-.65.61-1.09.87h0ZM138.53,34.46c-.82-.77-1.55-1.5-2.64-2.67-.69-.73-1.26-1.36-1.7-1.87l-3.62-4.2c.45-.13.62-.2,1.03-.35,1.17-.46,2.05-.97,2.86-1.65.92-.77,1.5-1.59,1.84-2.63.19-.58.28-1.17.28-1.77,0-1.41-.53-2.69-1.58-3.78-.96-.98-2.3-1.71-3.78-2.07-1.05-.24-2.14-.35-3.99-.4-.7-.01-1.41-.03-2.16-.03h-6.02c.41.37.57.53.78.87.18.26.32.55.4.83.16.52.23,1.23.23,2.45v15.11c0,1.09-.08,1.72-.27,2.22-.1.26-.24.5-.41.73-.21.28-.34.41-.77.8h7.41c-.35-.35-.44-.47-.64-.75-.17-.23-.3-.46-.4-.7-.21-.5-.28-1.06-.3-2.12,0-.35-.01-.73-.01-1.16v-5.17l4.32,5.11c.2.24.53.61.97,1.12.5.56.87.97,1.13,1.23.83.85,1.63,1.47,2.41,1.89.67.36,1.3.5,2.31.55.37,0,.78,0,1.21,0h2.93c-.39-.3-.55-.43-.85-.69-.32-.27-.65-.57-1.01-.9h0ZM198.05,17.29c0-1.01.09-1.79.26-2.44.08-.3.2-.58.37-.85.25-.4.42-.58.92-.97h-7.61c.44.36.59.53.85.94.17.27.3.54.39.8.18.54.24,1.21.24,2.42v5.6h-10.45v-4.21c0-1.27.02-2.1.07-2.72.02-.38.08-.72.18-1.01.17-.5.59-1.18.97-1.57.06-.06.14-.14.26-.25h-7.47c.45.46.57.59.77.89.15.23.29.5.39.78.21.58.24.9.26,2.44l.02,1.46v12.6c0,1.28-.02,1.85-.09,2.42-.03.3-.12.61-.23.91-.2.5-.46.9-.9,1.3-.05.05-.14.12-.26.22h7.37c-.32-.33-.43-.46-.62-.76-.14-.22-.26-.46-.36-.72-.25-.6-.32-1.03-.35-2.01,0-.49-.02-.94-.02-1.38v-5.58h10.45v5.61c0,1.24-.02,1.7-.1,2.35-.05.35-.13.68-.25.98-.16.43-.44.83-.84,1.21-.07.06-.18.16-.33.29h7.45c-.31-.3-.42-.43-.63-.71-.18-.26-.33-.51-.43-.77-.23-.53-.29-.94-.31-2.07,0-.67-.01-1.07-.01-1.19v-12.67s.01-1.36.01-1.36ZM170.63,32.73c-1.41.59-2.69.85-4.07.85-2.41,0-4.48-.85-6-2.48-1.51-1.62-2.33-3.85-2.33-6.38s.76-4.65,2.11-6.22c.59-.68,1.3-1.25,2.12-1.7,1.31-.73,2.84-1.11,4.5-1.11,1.43,0,2.8.27,4.19.84.86.34,1.18.51,1.91,1.04v-4.33c-.56-.18-.8-.24-1.42-.38-1.34-.28-2.63-.41-4.1-.41-2.5,0-4.66.4-6.64,1.22-1.18.49-2.25,1.12-3.2,1.88-2.88,2.29-4.43,5.6-4.43,9.41s1.5,6.89,4.26,9.05c2.27,1.76,5.19,2.66,8.7,2.66,2.19,0,4.23-.33,6.54-1.04.08-.03.21-.06.38-.12v-4.18c-.56.37-.75.49-1.09.68-.45.26-.92.49-1.43.7h0ZM148.27,17.3c.01-1.54.05-1.97.25-2.59.08-.25.2-.49.33-.72.24-.39.41-.57.88-.95h-7.48c.49.42.64.58.87.91.15.24.29.49.36.75.17.56.23,1.11.24,2.48,0,.69,0,1.16,0,1.38v13.78c0,.81-.15,1.67-.37,2.22-.1.24-.22.46-.37.67-.17.26-.3.4-.71.81h7.39c-.36-.31-.49-.45-.72-.81-.14-.22-.26-.45-.36-.7-.2-.52-.32-1.29-.32-2.01v-15.21ZM83.13,32.83c-1.03.18-2.2.28-3.66.32-.49.01-1.11.02-1.86.02h-3.57l14.13-20.13h-18.33l-2.25,4.91c.75-.39,1.05-.53,1.71-.79,1.04-.4,2.19-.72,3.3-.91.95-.17,1.84-.25,3.28-.29.65-.01,1.24-.02,1.81-.02h2.71l-14.26,20.12h20.15l2.32-5.25c-.81.46-1.1.62-1.71.9-1.17.52-2.45.9-3.77,1.13h0Z"/>
          </g>
        </g>
      </g>
      <g>
        <path class="cls-3" d="M125.68,75.65v-13h1.51v13h-1.51Z"/>
        <path class="cls-3" d="M141.05,75.65h-1.74l-7.09-10.92h-.07c.02.29.04.62.06.99.02.37.04.76.06,1.18s.02.84.02,1.28v7.47h-1.41v-13h1.73l7.06,10.89h.06c-.01-.21-.03-.5-.04-.89-.02-.38-.03-.79-.05-1.24-.02-.44-.02-.85-.02-1.23v-7.53h1.42v13Z"/>
        <path class="cls-3" d="M152.08,72.19c0,.77-.19,1.43-.57,1.97-.38.54-.92.96-1.61,1.24-.69.28-1.5.43-2.43.43-.49,0-.96-.02-1.4-.07s-.84-.12-1.21-.2-.69-.2-.97-.33v-1.45c.44.18.99.35,1.63.51s1.31.24,2.01.24c.65,0,1.2-.09,1.65-.26.45-.18.79-.43,1.03-.76.23-.33.35-.72.35-1.19s-.1-.82-.29-1.12-.52-.57-.97-.82c-.45-.25-1.07-.51-1.85-.79-.55-.2-1.04-.41-1.46-.64-.42-.23-.77-.5-1.06-.8-.28-.3-.5-.64-.65-1.03-.15-.39-.22-.84-.22-1.34,0-.69.18-1.29.53-1.78s.84-.87,1.47-1.14c.63-.26,1.34-.4,2.16-.4.69,0,1.34.07,1.93.2.59.13,1.13.31,1.62.52l-.47,1.3c-.47-.2-.96-.36-1.49-.49s-1.07-.2-1.62-.2-1.03.08-1.41.24c-.38.16-.67.39-.88.69-.2.3-.3.65-.3,1.06,0,.46.1.84.29,1.14.19.3.5.57.93.8.42.23.99.48,1.69.73.76.28,1.41.57,1.95.89.53.31.94.69,1.22,1.14.28.45.42,1.02.42,1.7Z"/>
        <path class="cls-3" d="M164.62,62.64v8.41c0,.92-.19,1.74-.56,2.46-.37.72-.93,1.28-1.68,1.69s-1.68.62-2.81.62c-1.61,0-2.83-.44-3.67-1.31-.84-.87-1.26-2.04-1.26-3.49v-8.38h1.52v8.42c0,1.1.29,1.95.88,2.55.58.6,1.46.9,2.62.9.79,0,1.44-.14,1.95-.43.51-.29.88-.69,1.13-1.21.25-.52.37-1.12.37-1.8v-8.43h1.5Z"/>
        <path class="cls-3" d="M171.73,62.64c1.07,0,1.95.13,2.65.4.7.26,1.22.67,1.56,1.21.34.54.52,1.23.52,2.06,0,.69-.12,1.26-.37,1.72-.25.46-.58.83-.98,1.12-.4.28-.83.5-1.29.66l3.57,5.84h-1.76l-3.18-5.43h-2.7v5.43h-1.51v-13h3.51ZM171.64,63.95h-1.91v4.99h2.06c1.06,0,1.84-.22,2.34-.65.5-.43.75-1.07.75-1.91,0-.88-.27-1.51-.8-1.88s-1.35-.55-2.45-.55Z"/>
        <path class="cls-3" d="M188.83,75.65l-1.6-4.13h-5.21l-1.59,4.13h-1.53l5.09-13.06h1.36l5.05,13.06h-1.57ZM186.77,70.18l-1.52-4.1c-.04-.11-.09-.28-.17-.52-.08-.24-.16-.49-.24-.76-.08-.26-.15-.47-.2-.63-.06.24-.12.48-.19.72-.07.24-.13.46-.2.67-.07.2-.12.38-.17.52l-1.55,4.1h4.25Z"/>
        <path class="cls-3" d="M202.8,75.65h-1.74l-7.09-10.92h-.07c.02.29.04.62.06.99.02.37.04.76.06,1.18s.02.84.02,1.28v7.47h-1.41v-13h1.73l7.06,10.89h.06c-.01-.21-.03-.5-.04-.89-.02-.38-.03-.79-.05-1.24-.02-.44-.02-.85-.02-1.23v-7.53h1.42v13Z"/>
        <path class="cls-3" d="M212.07,63.79c-.72,0-1.36.12-1.93.37-.57.25-1.06.6-1.46,1.07-.4.47-.71,1.03-.92,1.69-.21.66-.32,1.4-.32,2.22,0,1.09.17,2.04.51,2.84.34.8.85,1.42,1.53,1.86s1.53.66,2.55.66c.58,0,1.13-.05,1.64-.15.51-.1,1.01-.22,1.5-.37v1.32c-.47.18-.97.31-1.49.4-.52.09-1.14.13-1.86.13-1.32,0-2.43-.27-3.31-.82-.89-.55-1.55-1.32-1.99-2.33-.44-1-.66-2.18-.66-3.55,0-.98.14-1.88.41-2.7.28-.82.68-1.52,1.21-2.11.53-.59,1.18-1.05,1.96-1.37.77-.32,1.66-.48,2.66-.48.66,0,1.29.07,1.9.2.61.13,1.16.32,1.65.56l-.61,1.28c-.41-.19-.87-.35-1.37-.49-.5-.14-1.03-.21-1.61-.21Z"/>
        <path class="cls-3" d="M225.39,75.65h-7.24v-13h7.24v1.33h-5.73v4.21h5.4v1.32h-5.4v4.81h5.73v1.33Z"/>
        <path class="cls-3" d="M241.89,75.65l-1.6-4.13h-5.21l-1.59,4.13h-1.53l5.09-13.06h1.36l5.05,13.06h-1.57ZM239.83,70.18l-1.52-4.1c-.04-.11-.09-.28-.17-.52-.08-.24-.16-.49-.24-.76-.08-.26-.15-.47-.2-.63-.06.24-.12.48-.19.72-.07.24-.13.46-.2.67-.07.2-.12.38-.17.52l-1.55,4.1h4.25Z"/>
        <path class="cls-3" d="M251.42,75.65l-4.37-11.51h-.07c.02.24.04.54.06.89.02.35.03.73.04,1.14s.02.83.02,1.26v8.22h-1.41v-13h2.24l4.12,10.81h.06l4.18-10.81h2.22v13h-1.49v-8.32c0-.39,0-.77.02-1.16s.03-.76.04-1.1c.02-.35.04-.65.05-.9h-.07l-4.42,11.49h-1.24Z"/>
        <path class="cls-3" d="M269.44,75.65h-7.24v-13h7.24v1.33h-5.73v4.21h5.4v1.32h-5.4v4.81h5.73v1.33Z"/>
        <path class="cls-3" d="M275.82,62.64c1.07,0,1.95.13,2.65.4.7.26,1.22.67,1.56,1.21.34.54.52,1.23.52,2.06,0,.69-.12,1.26-.37,1.72-.25.46-.58.83-.98,1.12-.4.28-.83.5-1.29.66l3.57,5.84h-1.76l-3.18-5.43h-2.7v5.43h-1.51v-13h3.51ZM275.73,63.95h-1.91v4.99h2.06c1.06,0,1.84-.22,2.34-.65.5-.43.75-1.07.75-1.91,0-.88-.27-1.51-.8-1.88s-1.35-.55-2.45-.55Z"/>
        <path class="cls-3" d="M283.85,75.65v-13h1.51v13h-1.51Z"/>
        <path class="cls-3" d="M294.66,63.79c-.72,0-1.36.12-1.93.37-.57.25-1.06.6-1.46,1.07-.4.47-.71,1.03-.92,1.69-.21.66-.32,1.4-.32,2.22,0,1.09.17,2.04.51,2.84.34.8.85,1.42,1.53,1.86s1.53.66,2.55.66c.58,0,1.13-.05,1.64-.15.51-.1,1.01-.22,1.5-.37v1.32c-.47.18-.97.31-1.49.4-.52.09-1.14.13-1.86.13-1.32,0-2.43-.27-3.31-.82-.89-.55-1.55-1.32-1.99-2.33-.44-1-.66-2.18-.66-3.55,0-.98.14-1.88.41-2.7.28-.82.68-1.52,1.21-2.11.53-.59,1.18-1.05,1.96-1.37.77-.32,1.66-.48,2.66-.48.66,0,1.29.07,1.9.2.61.13,1.16.32,1.65.56l-.61,1.28c-.41-.19-.87-.35-1.37-.49-.5-.14-1.03-.21-1.61-.21Z"/>
        <path class="cls-3" d="M309.56,75.65l-1.6-4.13h-5.21l-1.59,4.13h-1.53l5.09-13.06h1.36l5.05,13.06h-1.57ZM307.51,70.18l-1.52-4.1c-.04-.11-.09-.28-.17-.52-.08-.24-.16-.49-.24-.76-.08-.26-.15-.47-.2-.63-.06.24-.12.48-.19.72-.07.24-.13.46-.2.67-.07.2-.12.38-.17.52l-1.55,4.1h4.25Z"/>
      </g>
    </g>
  </g>
</svg>