<?xml version="1.0" encoding="UTF-8" standalone="no"?>
<!-- Created with Inkscape (http://www.inkscape.org/) -->

<svg
   version="1.1"
   id="svg867"
   xml:space="preserve"
   width="682.66669"
   height="682.66669"
   viewBox="0 0 682.66669 682.66669"
   xmlns="http://www.w3.org/2000/svg"
   xmlns:svg="http://www.w3.org/2000/svg"><defs
     id="defs871"><clipPath
       clipPathUnits="userSpaceOnUse"
       id="clipPath881"><path
         d="M 0,512 H 512 V 0 H 0 Z"
         id="path879" /></clipPath></defs><g
     id="g873"
     transform="matrix(1.3333333,0,0,-1.3333333,0,682.66667)"><g
       id="g875"><g
         id="g877"
         clip-path="url(#clipPath881)"><g
           id="g883"
           transform="translate(349.8845,277.021)"><path
             d="m 0,0 -90.127,-90.127 c -5.858,-5.858 -13.536,-8.787 -21.213,-8.787 -7.678,0 -15.356,2.929 -21.213,8.787 l -45.064,45.064 c -11.716,11.715 -11.716,30.71 0,42.426 11.716,11.716 30.71,11.716 42.426,0 l 23.851,-23.851 68.914,68.914 C -30.71,54.142 -11.716,54.142 0,42.426 11.716,30.711 11.716,11.716 0,0 m 87.135,159.998 c -48.352,48.352 -112.639,74.981 -181.02,74.981 -68.38,0 -132.667,-26.629 -181.019,-74.981 -48.352,-48.352 -74.981,-112.639 -74.981,-181.019 0,-68.38 26.629,-132.667 74.981,-181.019 48.352,-48.352 112.639,-74.981 181.019,-74.981 68.381,0 132.668,26.629 181.02,74.981 48.352,48.352 74.98,112.639 74.98,181.019 0,68.38 -26.628,132.667 -74.98,181.019"
             style="fill:#000000;fill-opacity:1;fill-rule:nonzero;stroke:none"
             id="path885" /></g></g></g></g></svg>
